# xmcd CD database file
#
# Track frame offsets:
#	150
#	23697
#	41664
#	60153
#	80326
#	97072
#	111963
#	129178
#	146632
#	162390
#	175639
#	191550
#
# Disc length: 2805 seconds
#
# Revision: 2
# Processed by: cddbd v1.5.1PL0 Copyright (c) Steve Scherf et al.
# Submitted via: CDex 1.51
#
DISCID=950af30c
DTITLE=Mulheres Perdidas - Declaração de amor
DYEAR=2004
DGENRE=Forró
TTITLE0=Perdi voce pra quem?
TTITLE1=Porque mudou minha vida?
TTITLE2=Tente me entender
TTITLE3=Carne mijada
TTITLE4=0800
TTITLE5=Ela chorou de amor
TTITLE6=Declaração de amor
TTITLE7=O chicotinho
TTITLE8=Tô ligando
TTITLE9=Adeus, by by
TTITLE10=Eu te amo, amor
TTITLE11=Se gosta de mim
EXTD=declaraçao de amor YEAR: 2004
EXTT0=
EXTT1=
EXTT2=
EXTT3=
EXTT4=
EXTT5=
EXTT6=
EXTT7=
EXTT8=
EXTT9=
EXTT10=
EXTT11=
PLAYORDER=
